# xmcd
#
# Track frame offsets:
#	150
#	13289
#	28140
#	36269
#	48979
#	69177
#	88692
#	102623
#	117792
#	135310
#	148471
#	165330
#	177156
#	189076
#	208692
#	221375
#
# Disc length: 3196 seconds
#
# Revision: 1
# Processed by: cddbd v1.5.2PL0 Copyright (c) Steve Scherf et al.
# Submitted via: audiograbber 1.83.01
#
DISCID=df0c7a10
DTITLE=M. Soul  - Don`t take your Guns to Town
DYEAR=2013
DGENRE=Country
TTITLE0=25 Minutes to go
TTITLE1=Don`t take your Guns to Town
TTITLE2=Five Feed high rising
TTITLE3=Cocaine Blues
TTITLE4=Sunday Morning` coming` down
TTITLE5=City of New Orleans
TTITLE6=Highwayman
TTITLE7=Personal Jesus
TTITLE8=The Man comes around
TTITLE9=Sam Hall
TTITLE10=Hurt
TTITLE11=Cry Cry Cry
TTITLE12=I still miss Someone
TTITLE13=Ghost Riders in the Sky
TTITLE14=Ring of Fire
TTITLE15=I Hung my Head
EXTD=
EXTT0=
EXTT1=
EXTT2=
EXTT3=
EXTT4=
EXTT5=
EXTT6=
EXTT7=
EXTT8=
EXTT9=
EXTT10=
EXTT11=
EXTT12=
EXTT13=
EXTT14=
EXTT15=
PLAYORDER=
